<?xml version="1.0" encoding="UTF-8"?>
<svg xmlns="http://www.w3.org/2000/svg" xmlns:xlink="http://www.w3.org/1999/xlink" viewBox="0 0 100 100" width="100px" height="100px">
<g id="surface1926167">
<path style=" stroke:none;fill-rule:nonzero;fill:rgb(71.764708%,65.490198%,65.490198%);fill-opacity:1;" d="M 13 27 C 11.894531 27 11 27.894531 11 29 C 11 30.105469 11.894531 31 13 31 C 14.105469 31 15 30.105469 15 29 C 15 27.894531 14.105469 27 13 27 Z M 13 27 "/>
<path style=" stroke:none;fill-rule:nonzero;fill:rgb(49.411765%,42.352942%,42.352942%);fill-opacity:1;" d="M 77 12 C 76.449219 12 76 12.449219 76 13 C 76 13.550781 76.449219 14 77 14 C 77.550781 14 78 13.550781 78 13 C 78 12.449219 77.550781 12 77 12 Z M 77 12 "/>
<path style=" stroke:none;fill-rule:nonzero;fill:rgb(71.764708%,65.490198%,65.490198%);fill-opacity:1;" d="M 50 13 C 29.566406 13 13 29.566406 13 50 C 13 70.433594 29.566406 87 50 87 C 70.433594 87 87 70.433594 87 50 C 87 29.566406 70.433594 13 50 13 Z M 50 13 "/>
<path style=" stroke:none;fill-rule:nonzero;fill:rgb(49.411765%,42.352942%,42.352942%);fill-opacity:1;" d="M 83 11 C 80.789062 11 79 12.789062 79 15 C 79 17.210938 80.789062 19 83 19 C 85.210938 19 87 17.210938 87 15 C 87 12.789062 85.210938 11 83 11 Z M 83 11 "/>
<path style=" stroke:none;fill-rule:nonzero;fill:rgb(71.764708%,65.490198%,65.490198%);fill-opacity:1;" d="M 87 22 C 85.894531 22 85 22.894531 85 24 C 85 25.105469 85.894531 26 87 26 C 88.105469 26 89 25.105469 89 24 C 89 22.894531 88.105469 22 87 22 Z M 87 22 "/>
<path style=" stroke:none;fill-rule:nonzero;fill:rgb(49.411765%,42.352942%,42.352942%);fill-opacity:1;" d="M 81 74 C 79.894531 74 79 74.894531 79 76 C 79 77.105469 79.894531 78 81 78 C 82.105469 78 83 77.105469 83 76 C 83 74.894531 82.105469 74 81 74 Z M 15 59 C 12.789062 59 11 60.789062 11 63 C 11 65.210938 12.789062 67 15 67 C 17.210938 67 19 65.210938 19 63 C 19 60.789062 17.210938 59 15 59 Z M 15 59 "/>
<path style=" stroke:none;fill-rule:nonzero;fill:rgb(71.764708%,65.490198%,65.490198%);fill-opacity:1;" d="M 25 85 C 23.894531 85 23 85.894531 23 87 C 23 88.105469 23.894531 89 25 89 C 26.105469 89 27 88.105469 27 87 C 27 85.894531 26.105469 85 25 85 Z M 25 85 "/>
<path style=" stroke:none;fill-rule:nonzero;fill:rgb(100%,100%,100%);fill-opacity:1;" d="M 18.5 51 C 17.121094 51 16 52.121094 16 53.5 C 16 54.878906 17.121094 56 18.5 56 C 19.878906 56 21 54.878906 21 53.5 C 21 52.121094 19.878906 51 18.5 51 Z M 18.5 51 "/>
<path style=" stroke:none;fill-rule:nonzero;fill:rgb(49.411765%,42.352942%,42.352942%);fill-opacity:1;" d="M 21 66 C 20.449219 66 20 66.449219 20 67 C 20 67.550781 20.449219 68 21 68 C 21.550781 68 22 67.550781 22 67 C 22 66.449219 21.550781 66 21 66 Z M 21 66 "/>
<path style=" stroke:none;fill-rule:nonzero;fill:rgb(100%,100%,100%);fill-opacity:1;" d="M 80 33 C 79.449219 33 79 33.449219 79 34 C 79 34.550781 79.449219 35 80 35 C 80.550781 35 81 34.550781 81 34 C 81 33.449219 80.550781 33 80 33 Z M 80 33 "/>
<path style=" stroke:none;fill-rule:nonzero;fill:rgb(99.607843%,83.529413%,70.19608%);fill-opacity:1;" d="M 65 73 L 35 73 C 30.601562 73 27 69.398438 27 65 L 27 35 C 27 30.601562 30.601562 27 35 27 L 65 27 C 69.398438 27 73 30.601562 73 35 L 73 65 C 73 69.398438 69.398438 73 65 73 Z M 65 73 "/>
<path style=" stroke:none;fill-rule:nonzero;fill:rgb(83.92157%,56.078434%,32.549021%);fill-opacity:1;" d="M 65.625 28 L 34.375 28 C 30.855469 28 28 30.855469 28 34.375 L 28 42 L 72 42 L 72 34.375 C 72 30.855469 69.144531 28 65.625 28 Z M 65.625 28 "/>
<path style=" stroke:none;fill-rule:nonzero;fill:rgb(27.843139%,16.862746%,16.078432%);fill-opacity:1;" d="M 61 41.9375 L 28.0625 41.9375 C 27.789062 41.9375 27.5625 41.714844 27.5625 41.4375 C 27.5625 41.160156 27.789062 40.9375 28.0625 40.9375 L 61 40.9375 C 61.277344 40.9375 61.5 41.160156 61.5 41.4375 C 61.5 41.714844 61.277344 41.9375 61 41.9375 Z M 72 41.9375 L 66 41.9375 C 65.722656 41.9375 65.5 41.714844 65.5 41.4375 C 65.5 41.160156 65.722656 40.9375 66 40.9375 L 72 40.9375 C 72.277344 40.9375 72.5 41.160156 72.5 41.4375 C 72.5 41.714844 72.277344 41.9375 72 41.9375 Z M 72 41.9375 "/>
<path style=" stroke:none;fill-rule:nonzero;fill:rgb(99.607843%,99.215686%,93.725491%);fill-opacity:1;" d="M 50 39 C 43.925781 39 39 43.925781 39 50 C 39 56.074219 43.925781 61 50 61 C 56.074219 61 61 56.074219 61 50 C 61 43.925781 56.074219 39 50 39 Z M 50 39 "/>
<path style=" stroke:none;fill-rule:nonzero;fill:rgb(27.843139%,16.862746%,16.078432%);fill-opacity:1;" d="M 50 61.5 C 43.660156 61.5 38.5 56.339844 38.5 50 C 38.5 43.660156 43.660156 38.5 50 38.5 C 56.339844 38.5 61.5 43.660156 61.5 50 C 61.5 56.339844 56.339844 61.5 50 61.5 Z M 50 39.5 C 44.210938 39.5 39.5 44.210938 39.5 50 C 39.5 55.789062 44.210938 60.5 50 60.5 C 55.789062 60.5 60.5 55.789062 60.5 50 C 60.5 44.210938 55.789062 39.5 50 39.5 Z M 50 39.5 "/>
<path style=" stroke:none;fill-rule:nonzero;fill:rgb(94.509804%,35.686275%,42.352942%);fill-opacity:1;" d="M 33 27.5 C 31.898438 27.5 31 28.398438 31 29.5 L 31 41.5 L 33 41.5 Z M 33 27.5 "/>
<path style=" stroke:none;fill-rule:nonzero;fill:rgb(56.078434%,61.960787%,71.372551%);fill-opacity:1;" d="M 50 43 C 46.132812 43 43 46.132812 43 50 C 43 53.867188 46.132812 57 50 57 C 53.867188 57 57 53.867188 57 50 C 57 46.132812 53.867188 43 50 43 Z M 50 43 "/>
<path style=" stroke:none;fill-rule:nonzero;fill:rgb(46.666667%,79.607844%,82.352942%);fill-opacity:1;" d="M 46.5 45 C 45.121094 45 44 46.121094 44 47.5 C 44 48.878906 45.121094 50 46.5 50 C 47.878906 50 49 48.878906 49 47.5 C 49 46.121094 47.878906 45 46.5 45 Z M 46.5 45 "/>
<path style=" stroke:none;fill-rule:nonzero;fill:rgb(27.843139%,16.862746%,16.078432%);fill-opacity:1;" d="M 46.5 50.5 C 44.847656 50.5 43.5 49.152344 43.5 47.5 C 43.5 45.847656 44.847656 44.5 46.5 44.5 C 48.152344 44.5 49.5 45.847656 49.5 47.5 C 49.5 49.152344 48.152344 50.5 46.5 50.5 Z M 46.5 45.5 C 45.398438 45.5 44.5 46.398438 44.5 47.5 C 44.5 48.601562 45.398438 49.5 46.5 49.5 C 47.601562 49.5 48.5 48.601562 48.5 47.5 C 48.5 46.398438 47.601562 45.5 46.5 45.5 Z M 46.5 45.5 "/>
<path style=" stroke:none;fill-rule:nonzero;fill:rgb(71.764708%,46.666667%,28.235295%);fill-opacity:1;" d="M 61.5 32.5 L 67.5 32.5 L 67.5 38.5 L 61.5 38.5 Z M 61.5 32.5 "/>
<path style=" stroke:none;fill-rule:nonzero;fill:rgb(27.843139%,16.862746%,16.078432%);fill-opacity:1;" d="M 68 39 L 61 39 L 61 32 L 68 32 Z M 62 38 L 67 38 L 67 33 L 62 33 Z M 62 38 "/>
<path style=" stroke:none;fill-rule:nonzero;fill:rgb(97.647059%,90.196079%,36.078432%);fill-opacity:1;" d="M 33 28 L 35 28 L 35 41 L 33 41 Z M 33 28 "/>
<path style=" stroke:none;fill-rule:nonzero;fill:rgb(63.137257%,82.745099%,63.529414%);fill-opacity:1;" d="M 35 28 L 37 28 L 37 41 L 35 41 Z M 35 28 "/>
<path style=" stroke:none;fill-rule:nonzero;fill:rgb(22.352941%,76.078433%,84.705883%);fill-opacity:1;" d="M 37 28 L 39 28 L 39 41 L 37 41 Z M 37 28 "/>
<path style=" stroke:none;fill-rule:nonzero;fill:rgb(27.843139%,16.862746%,16.078432%);fill-opacity:1;" d="M 65 28.398438 C 68.640625 28.398438 71.601562 31.359375 71.601562 35 L 71.601562 65 C 71.601562 68.640625 68.640625 71.601562 65 71.601562 L 35 71.601562 C 31.359375 71.601562 28.398438 68.640625 28.398438 65 L 28.398438 35 C 28.398438 31.359375 31.359375 28.398438 35 28.398438 L 65 28.398438 M 65 27 L 35 27 C 30.601562 27 27 30.601562 27 35 L 27 65 C 27 69.398438 30.601562 73 35 73 L 65 73 C 69.398438 73 73 69.398438 73 65 L 73 35 C 73 30.601562 69.398438 27 65 27 Z M 65 27 "/>
<path style=" stroke:none;fill-rule:nonzero;fill:rgb(71.764708%,46.666667%,28.235295%);fill-opacity:1;" d="M 37.742188 39.765625 L 32.199219 39.765625 C 31.433594 39.765625 30.8125 40.386719 30.8125 41.152344 C 30.8125 41.917969 31.433594 42.539062 32.199219 42.539062 L 37.742188 42.539062 C 38.511719 42.539062 39.128906 41.917969 39.128906 41.152344 C 39.132812 40.386719 38.511719 39.765625 37.742188 39.765625 Z M 37.742188 39.765625 "/>
<path style=" stroke:none;fill-rule:nonzero;fill:rgb(27.843139%,16.862746%,16.078432%);fill-opacity:1;" d="M 37.742188 43.039062 L 32.199219 43.039062 C 31.160156 43.039062 30.3125 42.191406 30.3125 41.152344 C 30.3125 40.113281 31.160156 39.265625 32.199219 39.265625 L 37.742188 39.265625 C 38.785156 39.265625 39.632812 40.113281 39.632812 41.152344 C 39.632812 42.191406 38.785156 43.039062 37.742188 43.039062 Z M 32.199219 40.265625 C 31.710938 40.265625 31.3125 40.664062 31.3125 41.152344 C 31.3125 41.644531 31.710938 42.039062 32.199219 42.039062 L 37.742188 42.039062 C 38.234375 42.039062 38.632812 41.644531 38.632812 41.152344 C 38.632812 40.664062 38.234375 40.265625 37.742188 40.265625 Z M 32.199219 40.265625 "/>
<path style=" stroke:none;fill-rule:nonzero;fill:rgb(27.843139%,16.862746%,16.078432%);fill-opacity:1;" d="M 55.804688 54.414062 C 55.707031 54.414062 55.609375 54.386719 55.523438 54.328125 C 55.296875 54.175781 55.234375 53.863281 55.390625 53.632812 C 56.117188 52.558594 56.5 51.304688 56.5 50 C 56.5 49.722656 56.722656 49.5 57 49.5 C 57.277344 49.5 57.5 49.722656 57.5 50 C 57.5 51.503906 57.058594 52.953125 56.21875 54.195312 C 56.121094 54.335938 55.964844 54.414062 55.804688 54.414062 Z M 55.804688 54.414062 "/>
<path style=" stroke:none;fill-rule:nonzero;fill:rgb(27.843139%,16.862746%,16.078432%);fill-opacity:1;" d="M 50 57.5 C 45.863281 57.5 42.5 54.136719 42.5 50 C 42.5 45.863281 45.863281 42.5 50 42.5 C 52.675781 42.5 55.167969 43.941406 56.503906 46.265625 C 56.640625 46.503906 56.558594 46.808594 56.320312 46.945312 C 56.082031 47.082031 55.773438 47.003906 55.636719 46.761719 C 54.480469 44.75 52.320312 43.5 50 43.5 C 46.414062 43.5 43.5 46.414062 43.5 50 C 43.5 53.585938 46.414062 56.5 50 56.5 C 50.277344 56.5 50.5 56.722656 50.5 57 C 50.5 57.277344 50.277344 57.5 50 57.5 Z M 50 57.5 "/>
</g>
</svg>
