<?xml version="1.0" encoding="UTF-8"?>
<svg xmlns="http://www.w3.org/2000/svg" xmlns:xlink="http://www.w3.org/1999/xlink" viewBox="0 0 100 100" width="100px" height="100px">
<g id="surface1937028">
<path style=" stroke:none;fill-rule:nonzero;fill:rgb(49.411765%,42.352942%,42.352942%);fill-opacity:1;" d="M 77 12 C 76.449219 12 76 12.449219 76 13 C 76 13.550781 76.449219 14 77 14 C 77.550781 14 78 13.550781 78 13 C 78 12.449219 77.550781 12 77 12 Z M 77 12 "/>
<path style=" stroke:none;fill-rule:nonzero;fill:rgb(71.764708%,65.490198%,65.490198%);fill-opacity:1;" d="M 50 13 C 29.566406 13 13 29.566406 13 50 C 13 70.433594 29.566406 87 50 87 C 70.433594 87 87 70.433594 87 50 C 87 29.566406 70.433594 13 50 13 Z M 50 13 "/>
<path style=" stroke:none;fill-rule:nonzero;fill:rgb(49.411765%,42.352942%,42.352942%);fill-opacity:1;" d="M 83 11 C 80.789062 11 79 12.789062 79 15 C 79 17.210938 80.789062 19 83 19 C 85.210938 19 87 17.210938 87 15 C 87 12.789062 85.210938 11 83 11 Z M 83 11 "/>
<path style=" stroke:none;fill-rule:nonzero;fill:rgb(71.764708%,65.490198%,65.490198%);fill-opacity:1;" d="M 87 22 C 85.894531 22 85 22.894531 85 24 C 85 25.105469 85.894531 26 87 26 C 88.105469 26 89 25.105469 89 24 C 89 22.894531 88.105469 22 87 22 Z M 87 22 "/>
<path style=" stroke:none;fill-rule:nonzero;fill:rgb(49.411765%,42.352942%,42.352942%);fill-opacity:1;" d="M 81 74 C 79.894531 74 79 74.894531 79 76 C 79 77.105469 79.894531 78 81 78 C 82.105469 78 83 77.105469 83 76 C 83 74.894531 82.105469 74 81 74 Z M 15 59 C 12.789062 59 11 60.789062 11 63 C 11 65.210938 12.789062 67 15 67 C 17.210938 67 19 65.210938 19 63 C 19 60.789062 17.210938 59 15 59 Z M 15 59 "/>
<path style=" stroke:none;fill-rule:nonzero;fill:rgb(71.764708%,65.490198%,65.490198%);fill-opacity:1;" d="M 25 85 C 23.894531 85 23 85.894531 23 87 C 23 88.105469 23.894531 89 25 89 C 26.105469 89 27 88.105469 27 87 C 27 85.894531 26.105469 85 25 85 Z M 25 85 "/>
<path style=" stroke:none;fill-rule:nonzero;fill:rgb(100%,100%,100%);fill-opacity:1;" d="M 18.5 49 C 17.121094 49 16 50.121094 16 51.5 C 16 52.878906 17.121094 54 18.5 54 C 19.878906 54 21 52.878906 21 51.5 C 21 50.121094 19.878906 49 18.5 49 Z M 79.5 32 C 78.671875 32 78 32.671875 78 33.5 C 78 34.328125 78.671875 35 79.5 35 C 80.328125 35 81 34.328125 81 33.5 C 81 32.671875 80.328125 32 79.5 32 Z M 79.5 32 "/>
<path style=" stroke:none;fill-rule:nonzero;fill:rgb(91.764706%,31.764707%,40.392157%);fill-opacity:1;" d="M 50 72.300781 C 44.167969 72.300781 36.347656 72.164062 33.351562 71.921875 C 29.355469 71.578125 28.957031 67.726562 28.769531 61.414062 L 28.757812 61.042969 C 28.742188 60.480469 28.726562 59.921875 28.699219 59.371094 C 28.699219 56.410156 29.007812 52.960938 29.496094 50.410156 C 30.316406 47.070312 31.96875 47.019531 35.960938 46.898438 C 36.5625 46.878906 37.191406 46.859375 37.847656 46.824219 C 37.847656 46.824219 38.21875 46.820312 38.566406 46.8125 C 40.128906 46.78125 43.78125 46.699219 49.863281 46.699219 L 50.144531 46.699219 C 56.15625 46.699219 59.789062 46.777344 61.339844 46.8125 C 61.339844 46.8125 62.121094 46.828125 62.222656 46.828125 C 62.804688 46.859375 63.433594 46.882812 64.035156 46.898438 C 68.027344 47.019531 69.679688 47.070312 70.515625 50.472656 C 70.996094 52.980469 71.300781 56.425781 71.300781 59.433594 C 71.273438 59.972656 71.253906 60.578125 71.234375 61.191406 L 71.230469 61.414062 C 71.042969 67.722656 70.644531 71.578125 66.644531 71.917969 C 63.65625 72.164062 55.839844 72.300781 50 72.300781 Z M 50 72.300781 "/>
<path style=" stroke:none;fill-rule:nonzero;fill:rgb(27.843139%,16.862746%,16.078432%);fill-opacity:1;" d="M 49.859375 47.398438 L 50.144531 47.402344 C 56.191406 47.402344 59.808594 47.480469 61.355469 47.511719 L 61.414062 47.515625 C 61.796875 47.523438 62.050781 47.527344 62.183594 47.527344 C 62.796875 47.5625 63.421875 47.578125 64.015625 47.597656 C 68.136719 47.722656 69.144531 47.859375 69.828125 50.605469 C 70.304688 53.09375 70.597656 56.453125 70.601562 59.398438 C 70.574219 59.972656 70.554688 60.574219 70.535156 61.1875 L 70.53125 61.394531 C 70.339844 67.863281 69.890625 70.941406 66.589844 71.21875 C 63.628906 71.464844 55.832031 71.597656 50 71.601562 C 44.171875 71.597656 36.375 71.464844 33.410156 71.222656 C 30.109375 70.941406 29.660156 67.863281 29.46875 61.394531 L 29.460938 61.046875 C 29.441406 60.484375 29.425781 59.925781 29.398438 59.375 C 29.402344 56.441406 29.699219 53.078125 30.179688 50.578125 C 30.851562 47.855469 31.863281 47.722656 35.984375 47.597656 C 36.582031 47.578125 37.210938 47.558594 37.863281 47.527344 C 37.976562 47.523438 38.273438 47.519531 38.585938 47.511719 C 39.988281 47.484375 43.714844 47.398438 49.859375 47.398438 M 49.863281 46 C 43.769531 46 40.113281 46.078125 38.554688 46.113281 C 38.175781 46.121094 37.816406 46.128906 37.8125 46.128906 C 37.160156 46.160156 36.535156 46.179688 35.941406 46.199219 C 31.957031 46.320312 29.761719 46.386719 28.808594 50.277344 C 28.3125 52.871094 28 56.378906 28 59.40625 C 28.03125 60.070312 28.050781 60.753906 28.070312 61.4375 C 28.234375 66.972656 28.386719 72.199219 33.292969 72.617188 C 36.292969 72.863281 44.140625 73 50 73 C 55.859375 73 63.703125 72.863281 66.703125 72.617188 C 71.613281 72.199219 71.765625 66.972656 71.929688 61.4375 C 71.949219 60.75 71.96875 60.070312 72 59.433594 C 72 56.378906 71.6875 52.871094 71.195312 50.308594 C 70.234375 46.386719 68.039062 46.320312 64.058594 46.199219 C 63.460938 46.179688 62.835938 46.160156 62.222656 46.128906 C 62.109375 46.128906 61.855469 46.121094 61.445312 46.113281 C 59.894531 46.082031 56.28125 46 50.144531 46 C 50.097656 46 49.863281 46 49.863281 46 Z M 49.863281 46 "/>
<path style=" stroke:none;fill-rule:nonzero;fill:rgb(100%,100%,100%);fill-opacity:1;" d="M 49 67.945312 L 46.386719 67.945312 L 46.386719 66.210938 C 46.058594 66.683594 45.242188 67.945312 43.5 67.945312 C 42.628906 67.945312 41.15625 67.316406 41.15625 65.421875 L 41.15625 54.054688 L 43.773438 54.054688 L 43.773438 64.949219 C 43.773438 65.238281 43.796875 65.746094 44.753906 65.738281 C 45.816406 65.726562 46.386719 64.472656 46.386719 64.472656 L 46.386719 54.054688 L 49 54.054688 Z M 49 67.945312 "/>
<path style=" stroke:none;fill-rule:nonzero;fill:rgb(100%,100%,100%);fill-opacity:1;" d="M 40 52.789062 L 37.332031 52.789062 L 37.332031 67.945312 L 34.667969 67.945312 L 34.667969 52.789062 L 32 52.789062 L 32 50.261719 L 40 50.261719 Z M 40 52.789062 "/>
<path style=" stroke:none;fill-rule:nonzero;fill:rgb(100%,100%,100%);fill-opacity:1;" d="M 58.84375 57.285156 C 58.84375 56.195312 58.484375 55.457031 58.027344 54.898438 C 57.578125 54.34375 56.910156 54.050781 56.0625 54.050781 C 55.636719 54.050781 55.214844 54.164062 54.789062 54.375 C 54.363281 54.578125 53.914062 54.9375 53.613281 55.390625 L 53.613281 50.261719 L 51 50.261719 L 51 67.945312 L 53.613281 67.945312 L 53.613281 66.210938 C 54.117188 66.78125 54.855469 67.960938 56.226562 67.945312 C 58.1875 67.945312 58.84375 66.210938 58.84375 64.789062 Z M 56.226562 64.1875 C 56.226562 64.882812 55.640625 65.421875 54.921875 65.421875 C 54.199219 65.421875 53.625 65.152344 53.613281 64.789062 L 53.613281 57.285156 C 53.625 56.652344 54.199219 56.023438 54.921875 56.023438 C 55.640625 56.023438 56.226562 56.578125 56.226562 57.84375 Z M 56.226562 64.1875 "/>
<path style=" stroke:none;fill-rule:nonzero;fill:rgb(100%,100%,100%);fill-opacity:1;" d="M 68 61.632812 L 68 57.695312 C 68 56.433594 67.34375 54.054688 64.054688 54.054688 C 60.929688 54.054688 60.109375 56.554688 60.109375 57.695312 L 60.109375 63.644531 C 60.109375 64.933594 60.476562 65.933594 61.171875 66.664062 C 61.878906 67.394531 62.851562 67.746094 64.101562 67.746094 C 65.46875 67.746094 66.511719 67.421875 67.179688 66.71875 C 67.882812 66.046875 68 65.023438 68 63.644531 L 68 62.894531 L 65.367188 62.894531 L 65.367188 63.527344 C 65.367188 64.289062 65.289062 64.875 65.105469 65.082031 C 64.925781 65.3125 64.585938 65.417969 64.050781 65.421875 C 63.570312 65.425781 63.203125 65.296875 63.019531 65.007812 C 62.835938 64.742188 62.734375 64.289062 62.734375 63.585938 L 62.734375 61.632812 Z M 62.738281 57.84375 C 62.75 57.164062 63.324219 56.578125 64.054688 56.578125 C 64.777344 56.578125 65.367188 57.066406 65.367188 57.84375 L 65.367188 59.105469 L 62.738281 59.105469 Z M 62.738281 57.84375 "/>
<path style=" stroke:none;fill-rule:nonzero;fill:rgb(21.176471%,25.098041%,30.19608%);fill-opacity:1;" d="M 43.683594 25 L 41.15625 32.074219 L 38.632812 25 L 36.105469 25 L 39.894531 35.609375 L 39.894531 42.683594 L 42.421875 42.683594 L 42.421875 35.609375 L 46.210938 25 Z M 43.683594 25 "/>
<path style=" stroke:none;fill-rule:nonzero;fill:rgb(21.176471%,25.098041%,30.19608%);fill-opacity:1;" d="M 60.105469 29.421875 L 60.105469 39.210938 C 60.105469 39.210938 59.554688 40.464844 58.527344 40.472656 C 57.601562 40.480469 57.578125 39.972656 57.578125 39.683594 L 57.578125 29.421875 L 55.054688 29.421875 L 55.054688 40.15625 C 55.054688 42.054688 56.472656 42.683594 57.316406 42.683594 C 59 42.683594 59.789062 41.421875 60.105469 40.945312 L 60.105469 42.527344 L 62.632812 42.527344 L 62.632812 29.421875 Z M 60.105469 29.421875 "/>
<path style=" stroke:none;fill-rule:nonzero;fill:rgb(21.176471%,25.098041%,30.19608%);fill-opacity:1;" d="M 49.683594 42.683594 C 47.59375 42.683594 45.894531 40.949219 45.894531 38.816406 L 45.894531 33.132812 C 45.894531 31 47.59375 29.261719 49.683594 29.261719 C 51.773438 29.261719 53.472656 30.996094 53.472656 33.132812 L 53.472656 38.816406 C 53.472656 40.949219 51.773438 42.683594 49.683594 42.683594 Z M 49.683594 31.632812 C 48.988281 31.632812 48.421875 32.257812 48.421875 33.027344 L 48.421875 38.921875 C 48.421875 39.691406 48.988281 40.316406 49.683594 40.316406 C 50.382812 40.316406 50.945312 39.691406 50.945312 38.921875 L 50.945312 33.027344 C 50.945312 32.257812 50.382812 31.632812 49.683594 31.632812 Z M 49.683594 31.632812 "/>
</g>
</svg>
